<svg xmlns="http://www.w3.org/2000/svg" width="320" height="280" viewBox="0 0 320 280">
  <rect width="320" height="280" rx="8" fill="#1e1b4b"/>
  <!-- Header -->
  <text x="20" y="30" fill="white" font-size="14" font-family="system-ui" font-weight="bold">Annotations (3)</text>
  <!-- Annotation 1 -->
  <rect x="10" y="45" width="300" height="60" rx="6" fill="#312e81"/>
  <circle cx="30" cy="68" r="12" fill="#3b82f6"/>
  <text x="30" y="73" text-anchor="middle" fill="white" font-size="11" font-family="system-ui" font-weight="bold">1</text>
  <text x="50" y="65" fill="white" font-size="12" font-family="system-ui">button.submit-btn</text>
  <text x="50" y="82" fill="#a5b4fc" font-size="11" font-family="system-ui">Button stays active during load</text>
  <rect x="265" y="58" width="36" height="20" rx="4" fill="#3b82f6"/>
  <text x="283" y="72" text-anchor="middle" fill="white" font-size="9" font-family="system-ui">new</text>
  <!-- Annotation 2 -->
  <rect x="10" y="115" width="300" height="60" rx="6" fill="#312e81"/>
  <circle cx="30" cy="138" r="12" fill="#f59e0b"/>
  <text x="30" y="143" text-anchor="middle" fill="white" font-size="11" font-family="system-ui" font-weight="bold">2</text>
  <text x="50" y="135" fill="white" font-size="12" font-family="system-ui">.nav-link.active</text>
  <text x="50" y="152" fill="#a5b4fc" font-size="11" font-family="system-ui">Wrong color in dark mode</text>
  <rect x="250" y="128" width="56" height="20" rx="4" fill="#f59e0b"/>
  <text x="278" y="142" text-anchor="middle" fill="white" font-size="9" font-family="system-ui">working</text>
  <!-- Annotation 3 -->
  <rect x="10" y="185" width="300" height="60" rx="6" fill="#312e81"/>
  <circle cx="30" cy="208" r="12" fill="#10b981"/>
  <text x="30" y="213" text-anchor="middle" fill="white" font-size="11" font-family="system-ui" font-weight="bold">3</text>
  <text x="50" y="205" fill="white" font-size="12" font-family="system-ui">h1.page-title</text>
  <text x="50" y="222" fill="#a5b4fc" font-size="11" font-family="system-ui">Typo in heading</text>
  <rect x="253" y="198" width="50" height="20" rx="4" fill="#10b981"/>
  <text x="278" y="212" text-anchor="middle" fill="white" font-size="9" font-family="system-ui">fixed</text>
</svg>